@startuml

package api {
    class 飲み会Request {
        - String 開催名
        - String 開催日時
        - String[] 参加氏名[n]
        - String[] 幹事区分[n]
        - String[] 支払区分[n]
        - String 請求金額
        + 飲み会情報 create()
    }
}

package domain {
    class 飲み会情報 {
    }

    package 開催情報 {
        class 開催名 {
        }
        class 開催日時 {
        }
    }

    package 参加者 {

        class 参加者リスト {
            - List<参加者>
            + 支払区分ごとの参加者リスト 支払区分ごとの参加者リストを作成する()
        }
        class 参加者 {
            - 参加者名
            - 幹事区分
            - 支払区分
        }
        enum 幹事区分 {
            幹事
            幹事以外
        }

        enum 支払区分 {
            多め
            普通
            少なめ
        }

        class 支払区分ごとの参加者リスト {
            - 多めの参加者リスト
            - 普通の参加者リスト
            - 少なめの参加者リスト
        }

        参加者リスト "1" --> "n" 参加者
        参加者リスト --> 支払区分ごとの参加者リスト
        参加者 --> 参加者名
        参加者 --> 幹事区分
        参加者 --> 支払区分

    }




    package 支払割合 {
        class 支払割合 {
            + 支払区分ごとの支払割合 算出する(支払区分ごとの参加者リスト)
        }

        class 支払区分ごとの支払割合 {
            + 一人当たりの支払割合 算出する(支払区分ごとの参加者リスト)
        }

        class 一人当たりの支払割合 {
            + 参加者ごとの支払金額 算出する(請求金額)
        }

        支払割合 --> 支払区分ごとの支払割合
        支払区分ごとの支払割合 --> 一人当たりの支払割合
    }

    package 支払金額 {
        class 請求金額 {
        }

        class 参加者ごとの支払金額 {
        }
    }

    飲み会情報 --> 開催名
    飲み会情報 --> 開催日時
    飲み会情報 --> 参加者リスト
    飲み会情報 --> 請求金額

    支払区分ごとの参加者リスト --> 支払割合

    一人当たりの支払割合 --> 請求金額
    一人当たりの支払割合 --> 参加者ごとの支払金額




}

飲み会Request -> 飲み会情報


@enduml